HIERARCHY
ROOT Hips
{
	OFFSET 48.988499 10.810385 94.098396
	CHANNELS 6 Xposition Yposition Zposition Xrotation Yrotation Zrotation
	JOINT spine
	{
		OFFSET 0.000000 -0.448574 7.800591
		CHANNELS 3 Xrotation Yrotation Zrotation
		JOINT spine1
		{
			OFFSET 0.000000 -0.000002 10.136398
			CHANNELS 3 Xrotation Yrotation Zrotation
			JOINT spine2
			{
				OFFSET 0.000000 -0.000002 9.712509
				CHANNELS 3 Xrotation Yrotation Zrotation
				JOINT Neck
				{
					OFFSET 0.000000 -1.188874 24.936096
					CHANNELS 3 Xrotation Yrotation Zrotation
					JOINT Head
					{
						OFFSET 0.000000 -0.000001 7.533844
						CHANNELS 3 Xrotation Yrotation Zrotation
						End Site
						{
							OFFSET 0.000000 6.014017 18.236099
						}
					}
				}
				JOINT RightShoulder
				{
					OFFSET -4.089649 0.569455 10.488800
					CHANNELS 3 Xrotation Yrotation Zrotation
					JOINT RightArm
					{
						OFFSET 0.000000 -0.000002 13.757004
						CHANNELS 3 Xrotation Yrotation Zrotation
						JOINT RightArmRoll
						{
							OFFSET 0.000000 -0.000001 6.944778
							CHANNELS 3 Xrotation Yrotation Zrotation
							JOINT RightForeArm
							{
								OFFSET 0.000000 -0.000004 20.227692
								CHANNELS 3 Xrotation Yrotation Zrotation
								JOINT RightForeArmRoll
								{
									OFFSET 0.000000 -0.000001 7.793121
									CHANNELS 3 Xrotation Yrotation Zrotation
									JOINT RightHand
									{
										OFFSET 0.000000 -0.000003 15.639099
										CHANNELS 3 Xrotation Yrotation Zrotation
										End Site
										{
											OFFSET 0.000000 0.000000 0.100006
										}
									}
								}
							}
						}
					}
				}
				JOINT LeftShoulder
				{
					OFFSET 4.089649 0.569455 10.488800
					CHANNELS 3 Xrotation Yrotation Zrotation
					JOINT LeftArm
					{
						OFFSET 0.000000 -0.000002 13.757004
						CHANNELS 3 Xrotation Yrotation Zrotation
						JOINT LeftArmRoll
						{
							OFFSET 0.000000 -0.000001 6.944778
							CHANNELS 3 Xrotation Yrotation Zrotation
							JOINT LeftForeArm
							{
								OFFSET 0.000000 -0.000004 20.227692
								CHANNELS 3 Xrotation Yrotation Zrotation
								JOINT LeftForeArmRoll
								{
									OFFSET 0.000000 -0.000001 7.793121
									CHANNELS 3 Xrotation Yrotation Zrotation
									JOINT LeftHand
									{
										OFFSET 0.000000 -0.000003 15.639099
										CHANNELS 3 Xrotation Yrotation Zrotation
										End Site
										{
											OFFSET 0.000000 0.000000 0.100006
										}
									}
								}
							}
						}
					}
				}
			}
		}
	}
	JOINT RightUpLeg
	{
		OFFSET -6.914158 1.063580 -1.267883
		CHANNELS 3 Xrotation Yrotation Zrotation
		JOINT RightUpLegRoll
		{
			OFFSET 0.000000 -0.000003 18.337799
			CHANNELS 3 Xrotation Yrotation Zrotation
			JOINT RightLeg
			{
				OFFSET 0.000000 0.000004 -22.708504
				CHANNELS 3 Xrotation Yrotation Zrotation
				JOINT RightLegRoll
				{
					OFFSET 0.000000 -0.000004 22.782799
					CHANNELS 3 Xrotation Yrotation Zrotation
					JOINT RightFoot
					{
						OFFSET 0.000000 -0.000003 18.962898
						CHANNELS 3 Xrotation Yrotation Zrotation
						JOINT RightToeBase
						{
							OFFSET 0.000000 -0.000003 15.852005
							CHANNELS 3 Xrotation Yrotation Zrotation
							End Site
							{
								OFFSET 0.006718 0.884892 7.677017
							}
						}
					}
				}
			}
		}
	}
	JOINT LeftUpLeg
	{
		OFFSET 6.914158 1.063580 -1.267883
		CHANNELS 3 Xrotation Yrotation Zrotation
		JOINT LeftUpLegRoll
		{
			OFFSET 0.000000 -0.000003 18.337898
			CHANNELS 3 Xrotation Yrotation Zrotation
			JOINT LeftLeg
			{
				OFFSET 0.000000 -0.000004 22.708405
				CHANNELS 3 Xrotation Yrotation Zrotation
				JOINT LeftLegRoll
				{
					OFFSET 0.000000 -0.000004 22.993393
					CHANNELS 3 Xrotation Yrotation Zrotation
					JOINT LeftFoot
					{
						OFFSET 0.000000 -0.000003 18.752197
						CHANNELS 3 Xrotation Yrotation Zrotation
						JOINT LeftToeBase
						{
							OFFSET 0.000000 -0.000003 15.852005
							CHANNELS 3 Xrotation Yrotation Zrotation
							End Site
							{
								OFFSET -0.030113 0.884892 7.677017
							}
						}
					}
				}
			}
		}
	}
}
MOTION
Frames: 10
Frame Time: 0.041667
55.479702 -9.279392 94.309708 -5.316096 0.301203 -0.451484 -0.480799 -0.011998 0.432466 3.041320 -0.009272 0.855687 4.686320 0.000871 0.855733 21.996812 1.899020 -3.005545 -14.714365 -7.449622 -3.105976 -27.356559 -80.256840 -31.228004 82.363783 -79.759527 96.254653 0.000001 0.000000 0.000000 20.924124 -11.277815 0.899860 -0.000002 0.000007 -3.000001 -5.000320 -7.998745 0.000203 -3.772596 63.352299 4.894495 -3.908172 108.468055 -11.175100 -0.000002 0.000012 0.000003 15.986129 3.264068 0.644518 -0.000000 0.000025 3.000010 -5.000203 7.999681 -0.000058 0.648606 -178.233103 -0.237401 -179.999991 0.000005 -1.087006 170.367007 -0.908021 -0.662108 0.000001 0.000004 0.108435 69.293116 6.459187 3.239168 25.456902 -7.343150 -0.000001 0.967507 179.520075 6.287326 -0.000004 -0.000004 -1.326650 -11.004408 4.721383 0.678681 -0.000006 -0.000003 -0.239915 72.564305 -7.605661 0.169069 25.459542 7.353248 -0.010261 
55.449303 -9.321501 94.313301 -5.327938 0.308728 -0.457724 -0.472758 -0.011916 0.432408 3.057400 -0.009959 0.856291 4.702400 0.000075 0.856341 21.940210 1.894414 -3.001211 -14.690383 -7.441781 -3.101181 -27.350173 -80.254477 -31.221392 82.561162 -79.760818 96.275758 0.000000 -0.000001 -0.000001 21.091252 -11.340673 0.930541 0.000002 0.000006 -3.000001 -5.000321 -7.998744 0.000205 -3.789289 63.333236 4.911862 -3.813553 108.479148 -11.070923 -0.000002 0.000012 0.000001 16.237708 3.396275 0.632665 -0.000002 0.000024 3.000008 -5.000200 7.999681 -0.000057 0.648651 -178.245111 -0.236587 -179.999991 0.000005 -1.087006 170.333607 -0.913843 -0.663645 0.000000 0.000004 0.108829 69.315628 6.462796 3.228917 25.456904 -7.343150 -0.000002 0.969498 179.506073 6.268472 -0.000005 -0.000004 -1.326940 -11.032163 4.731150 0.679904 -0.000006 -0.000002 -0.240127 72.572727 -7.606410 0.172428 25.459545 7.353248 -0.010262 
55.453003 -9.321405 94.310799 -5.340186 0.316334 -0.464041 -0.464657 -0.011795 0.432372 3.073601 -0.010578 0.856994 4.718600 -0.000661 0.857048 21.883192 1.888174 -2.996516 -14.665354 -7.432696 -3.096026 -27.347639 -80.253698 -31.218746 82.749299 -79.761665 96.287649 0.000000 0.000000 -0.000002 21.256507 -11.404270 0.961730 0.000004 0.000007 -3.000000 -5.000320 -7.998744 0.000205 -3.806192 63.313067 4.929360 -3.721838 108.493361 -10.966639 -0.000002 0.000012 0.000004 16.484117 3.527247 0.619001 -0.000001 0.000023 3.000011 -5.000200 7.999680 -0.000058 0.649635 -178.256107 -0.235064 -179.999991 0.000005 -1.087006 170.301082 -0.920648 -0.665341 0.000001 0.000004 0.109190 69.337956 6.466482 3.218389 25.456901 -7.343149 -0.000002 0.972207 179.491088 6.249604 -0.000005 -0.000004 -1.327240 -11.059418 4.740903 0.681074 -0.000006 -0.000002 -0.240338 72.581176 -7.607219 0.176078 25.459544 7.353248 -0.010262 
55.442204 -9.338545 94.308510 -5.352714 0.323999 -0.470409 -0.456515 -0.011646 0.432352 3.089890 -0.011148 0.857768 4.734889 -0.001352 0.857825 21.825759 1.880800 -2.991579 -14.639486 -7.422747 -3.090600 -27.347517 -80.253924 -31.218612 82.931003 -79.762054 96.293113 -0.000000 0.000001 0.000001 21.420498 -11.468376 0.993393 0.000000 0.000007 -3.000001 -5.000323 -7.998745 0.000205 -3.823209 63.292078 4.946911 -3.632701 108.506666 -10.861772 -0.000002 0.000011 0.000001 16.726867 3.657341 0.603767 -0.000002 0.000025 3.000011 -5.000202 7.999681 -0.000058 0.651280 -178.267104 -0.233051 -179.999991 0.000005 -1.087006 170.269185 -0.927468 -0.667038 0.000000 0.000004 0.109527 69.359895 6.470299 3.207604 25.456899 -7.343150 -0.000001 0.975418 179.476075 6.230751 -0.000005 -0.000004 -1.327530 -11.086371 4.750637 0.682213 -0.000007 -0.000002 -0.240548 72.589618 -7.608023 0.179530 25.459544 7.353248 -0.010262 
55.435802 -9.348680 94.305801 -5.365422 0.331697 -0.476806 -0.448347 -0.011481 0.432341 3.106221 -0.011692 0.858582 4.751220 -0.002019 0.858642 21.768320 1.872766 -2.986526 -14.613198 -7.412306 -3.085034 -27.348723 -80.254723 -31.219828 83.108342 -79.762252 96.294234 -0.000000 0.000000 0.000001 21.583808 -11.532757 1.025518 0.000004 0.000007 -3.000001 -5.000320 -7.998745 0.000204 -3.840283 63.270692 4.964504 -3.544584 108.522021 -10.756966 -0.000002 0.000012 0.000002 16.967769 3.786887 0.587190 -0.000002 0.000024 3.000011 -5.000201 7.999680 -0.000056 0.653301 -178.278114 -0.230759 -179.999991 0.000005 -1.088003 170.237629 -0.935256 -0.667907 0.000000 0.000004 0.109850 69.381765 6.474161 3.196633 25.456899 -7.343151 -0.000001 0.978920 179.461076 6.211893 -0.000005 -0.000004 -1.327820 -11.113024 4.760364 0.683328 -0.000007 -0.000003 -0.240757 72.598094 -7.608879 0.183273 25.459545 7.353248 -0.010261 
55.436806 -9.345982 94.302002 -5.378154 0.339407 -0.483205 -0.440172 -0.011312 0.432333 3.122570 -0.012227 0.859407 4.767570 -0.002680 0.859469 21.710779 1.864568 -2.981465 -14.586713 -7.401728 -3.079431 -27.350067 -80.255611 -31.221194 83.285619 -79.762444 96.295210 -0.000000 -0.000000 0.000001 21.747030 -11.597087 1.058025 -0.000001 0.000006 -3.000002 -5.000324 -7.998744 0.000205 -3.857363 63.249205 4.982083 -3.456941 108.536432 -10.651975 -0.000002 0.000010 0.000003 17.208230 3.916231 0.569473 -0.000003 0.000024 3.000009 -5.000201 7.999681 -0.000058 0.655414 -178.288114 -0.228388 -179.999991 0.000005 -1.088003 170.206197 -0.942073 -0.669612 0.000000 0.000004 0.110170 69.403615 6.478003 3.185656 25.456899 -7.343152 -0.000001 0.982492 179.446077 6.193042 -0.000005 -0.000004 -1.328110 -11.139779 4.770087 0.684458 -0.000007 -0.000002 -0.240966 72.606659 -7.609697 0.186931 25.459544 7.353247 -0.010262 
55.427307 -9.360714 94.300598 -5.390819 0.347103 -0.489587 -0.432008 -0.011151 0.432320 3.138899 -0.012776 0.860212 4.783890 -0.003352 0.860277 21.653240 1.856685 -2.976481 -14.560536 -7.391408 -3.073928 -27.351098 -80.256301 -31.222229 83.463880 -79.762758 96.297177 0.000000 0.000000 -0.000002 21.910670 -11.661134 1.090852 0.000000 0.000006 -3.000002 -5.000322 -7.998744 0.000205 -3.874379 63.227922 4.999604 -3.368734 108.549867 -10.546889 -0.000002 0.000011 0.000003 17.449977 4.045726 0.550787 0.000000 0.000025 3.000012 -5.000201 7.999680 -0.000058 0.657343 -178.299110 -0.226167 -179.999991 0.000005 -1.088003 170.174546 -0.949857 -0.670498 0.000000 0.000004 0.110496 69.425471 6.481829 3.174777 25.456901 -7.343150 -0.000001 0.985924 179.431091 6.174180 -0.000005 -0.000004 -1.328411 -11.166535 4.779816 0.685601 -0.000006 -0.000002 -0.241176 72.615108 -7.610525 0.190580 25.459542 7.353248 -0.010262 
55.421005 -9.193069 94.299110 -5.403278 0.354764 -0.495927 -0.423879 -0.011010 0.432294 3.155160 -0.013359 0.860968 4.800160 -0.004055 0.861036 21.596013 1.849598 -2.971692 -14.534880 -7.381695 -3.068615 -27.350026 -80.256171 -31.221112 83.646957 -79.763277 96.304049 0.000001 0.000001 -0.000000 22.075509 -11.724651 1.124013 0.000001 0.000007 -3.000001 -5.000324 -7.998746 0.000205 -3.891251 63.207219 5.017020 -3.278670 108.563316 -10.442347 -0.000003 0.000011 0.000002 17.694418 4.175739 0.531307 0.000001 0.000024 3.000011 -5.000203 7.999681 -0.000057 0.658797 -178.310107 -0.224298 -179.999991 0.000005 -1.088003 170.142471 -0.956669 -0.672229 0.000001 0.000004 0.110840 69.447622 6.485547 3.164057 25.456897 -7.343149 -0.000002 0.988992 179.416078 6.155322 -0.000005 -0.000004 -1.328700 -11.193595 4.789557 0.686790 -0.000007 -0.000002 -0.241386 72.623564 -7.611343 0.194130 25.459544 7.353247 -0.010262 
55.411209 -9.230995 94.297203 -5.415399 0.362363 -0.502200 -0.415796 -0.010900 0.432252 3.171331 -0.013996 0.861644 4.816320 -0.004806 0.861716 21.539109 1.843803 -2.967214 -14.510175 -7.372965 -3.063621 -27.346346 -80.254921 -31.217281 83.837505 -79.764233 96.318337 0.000001 0.000000 0.000001 22.241954 -11.787503 1.157469 0.000001 0.000006 -3.000001 -5.000323 -7.998744 0.000204 -3.907942 63.187344 5.034314 -3.185887 108.575754 -10.338251 -0.000002 0.000012 0.000002 17.943382 4.306608 0.511180 -0.000002 0.000025 3.000012 -5.000204 7.999681 -0.000057 0.659500 -178.322114 -0.222997 -179.999991 0.000005 -1.089001 170.109686 -0.963464 -0.673978 -0.000000 0.000004 0.111210 69.469963 6.489189 3.153510 25.456901 -7.343151 -0.000002 0.991487 179.401093 6.136446 -0.000005 -0.000004 -1.328990 -11.220956 4.799321 0.688033 -0.000007 -0.000002 -0.241598 72.632013 -7.612131 0.197681 25.459540 7.353248 -0.010262 
55.420807 -9.383652 94.292503 -5.427074 0.369877 -0.508383 -0.407780 -0.010835 0.432185 3.187360 -0.014707 0.862211 4.832360 -0.005624 0.862289 21.482622 1.839782 -2.963122 -14.486720 -7.365583 -3.059046 -27.338957 -80.252093 -31.209631 84.037814 -79.765558 96.342339 0.000001 -0.000000 0.000000 22.410696 -11.849349 1.191159 0.000001 0.000007 -3.000002 -5.000323 -7.998745 0.000203 -3.924375 63.168656 5.051417 -3.089543 108.585166 -10.234566 -0.000002 0.000012 0.000003 18.198291 4.438693 0.490522 -0.000002 0.000024 3.000012 -5.000203 7.999681 -0.000058 0.659167 -178.333111 -0.222453 -179.999991 0.000005 -1.089000 170.075918 -0.969285 -0.675581 0.000001 0.000004 0.111618 69.492681 6.492662 3.143511 25.456904 -7.343150 -0.000002 0.993190 179.386080 6.117559 -0.000005 -0.000004 -1.329290 -11.248919 4.809099 0.689359 -0.000007 -0.000002 -0.241809 72.640339 -7.612895 0.201132 25.459544 7.353248 -0.010262 
